<svg xmlns="http://www.w3.org/2000/svg" version="1.0" width="720.000000pt" height="720.000000pt" viewBox="0 0 720.000000 720.000000" preserveAspectRatio="xMidYMid meet">

<g transform="translate(0.000000,720.000000) scale(0.100000,-0.100000)" fill="#000000" stroke="none">
<path d="M485 5765 l-25 -24 0 -1861 0 -1862 29 -29 29 -29 1326 0 1326 0 0 -110 0 -110 -373 0 c-284 0 -377 -3 -390 -13 -16 -11 -17 -30 -15 -162 l3 -150 1205 0 1205 0 3 150 c2 132 1 151 -15 162 -13 10 -106 13 -390 13 l-373 0 0 110 0 110 1326 0 1326 0 29 29 29 29 0 1862 0 1861 -25 24 -24 25 -3091 0 -3091 0 -24 -25z m5903 -1887 l-3 -1603 -2785 0 -2785 0 -3 1603 -2 1602 2790 0 2790 0 -2 -1602z"/>
</g>
</svg>
