<svg xmlns="http://www.w3.org/2000/svg" version="1.0" width="900.000000pt" height="600.000000pt" viewBox="0 0 900.000000 600.000000" preserveAspectRatio="xMidYMid meet">

<g transform="translate(0.000000,600.000000) scale(0.100000,-0.100000)" fill="#000000" stroke="none">
<path d="M5540 4860 c-154 -48 -667 -206 -1040 -320 -256 -78 -535 -164 -620 -190 -85 -27 -459 -142 -830 -255 -371 -114 -745 -228 -830 -255 -85 -27 -276 -85 -425 -130 -302 -91 -322 -102 -311 -169 3 -20 14 -146 25 -281 11 -135 25 -284 31 -331 5 -48 10 -100 10 -118 0 -30 54 -103 274 -367 28 -33 91 -112 140 -175 144 -183 240 -304 247 -309 3 -3 21 -26 40 -52 19 -25 131 -167 249 -315 119 -147 234 -292 255 -321 22 -29 66 -85 98 -123 31 -39 72 -91 89 -115 l31 -44 270 0 269 0 107 39 c59 22 118 44 131 50 22 9 753 283 1570 588 293 109 371 139 525 199 39 15 111 41 160 59 122 44 811 302 855 320 19 8 156 60 304 115 148 56 278 105 288 111 13 7 18 21 18 54 0 24 5 88 10 142 37 352 59 604 54 617 -8 20 -47 13 -168 -30 -55 -20 -155 -55 -221 -79 -66 -23 -223 -80 -350 -125 -126 -45 -284 -101 -350 -125 -66 -23 -250 -90 -410 -148 -159 -58 -360 -130 -445 -161 -85 -30 -231 -82 -325 -116 -93 -34 -237 -86 -320 -115 -82 -29 -226 -81 -320 -115 -93 -34 -231 -83 -305 -110 -74 -26 -181 -64 -238 -85 -56 -20 -108 -35 -115 -32 -6 2 17 14 53 25 36 12 151 53 255 92 105 38 194 70 198 70 5 0 23 6 40 14 29 13 165 63 482 178 210 75 617 223 815 295 52 19 131 47 175 63 44 15 172 62 285 103 260 95 845 307 1058 383 89 32 162 61 161 64 0 3 -44 39 -97 81 -53 42 -160 127 -237 190 -170 137 -450 364 -720 581 -313 253 -547 442 -705 570 -79 65 -149 118 -155 117 -5 0 -21 -4 -35 -9z m946 -1131 c4 -8 9 -8 17 0 17 17 40 13 72 -14 21 -17 25 -24 14 -25 -9 0 -22 7 -29 15 -14 17 -50 20 -50 5 0 -6 7 -13 15 -16 15 -6 21 -24 8 -24 -5 0 -26 16 -48 35 -27 23 -35 34 -23 35 9 0 20 -5 24 -11z m-26 -29 c12 -8 9 -10 -13 -10 -18 0 -27 -4 -25 -12 6 -18 49 -22 59 -7 4 8 11 10 15 6 11 -11 -17 -37 -41 -37 -13 0 -33 9 -46 20 -24 20 -24 20 -5 35 23 17 35 18 56 5z m-102 -31 c9 -11 28 -26 42 -31 20 -9 21 -12 8 -15 -20 -5 -88 37 -88 55 0 19 18 14 38 -9z m-18 -44 c7 -8 11 -18 8 -20 -6 -6 -78 58 -78 69 0 9 52 -27 70 -49z m-60 -4 c14 -28 12 -44 -5 -37 -51 21 -51 21 -37 4 21 -26 0 -28 -48 -6 -25 11 -40 22 -33 25 7 2 21 0 32 -6 28 -15 36 -14 21 4 -17 21 -4 32 20 17 26 -16 33 -15 26 3 -8 22 12 18 24 -4z m-160 -22 c0 -6 -7 -9 -15 -5 -17 6 -45 -2 -45 -14 0 -4 20 -5 45 -2 45 5 81 -10 69 -30 -11 -17 -58 -29 -84 -22 -23 7 -22 8 13 13 50 8 43 25 -8 23 -22 -1 -47 2 -55 8 -13 9 -12 12 4 25 23 17 76 20 76 4z m615 -39 c8 0 17 -5 20 -10 4 -7 -2 -9 -19 -4 -21 5 -26 3 -26 -12 0 -9 -3 -14 -7 -10 -5 4 -8 13 -8 19 0 7 -10 13 -22 15 -13 2 -23 8 -23 13 0 5 11 7 25 3 17 -4 25 -2 25 7 1 9 4 8 11 -3 5 -10 16 -18 24 -18z m-787 -51 c7 -11 21 -19 30 -19 12 0 13 -3 4 -12 -8 -8 -20 -5 -46 13 -44 29 -56 54 -23 43 12 -4 28 -15 35 -25z m717 21 c-3 -5 -10 -10 -16 -10 -5 0 -9 5 -9 10 0 6 7 10 16 10 8 0 12 -4 9 -10z m-45 -4 c0 -2 3 -11 6 -20 5 -12 0 -16 -22 -16 -15 0 -35 -7 -45 -16 -16 -14 -20 -14 -44 2 -34 22 -18 43 20 26 34 -16 34 -15 28 8 -5 17 0 20 26 20 17 0 31 -2 31 -4z m-725 -36 c3 -5 -4 -11 -15 -15 -11 -3 -20 -11 -20 -17 0 -5 6 -8 13 -5 6 3 21 8 32 12 20 7 20 6 1 -9 -25 -21 -55 -20 -78 1 -24 21 -23 32 4 42 24 9 55 4 63 -9z m599 -19 c16 -18 16 -19 -10 -25 -30 -8 -62 14 -50 33 11 17 41 13 60 -8z m-84 -12 c24 -20 24 -21 5 -35 -26 -19 -35 -18 -62 8 -28 26 -29 35 -5 41 30 8 37 7 62 -14z m-609 -8 c13 -11 21 -22 18 -25 -3 -4 -18 3 -33 15 -20 16 -30 19 -38 11 -9 -9 -7 -17 7 -32 25 -28 9 -25 -26 4 -27 23 -28 26 -12 35 28 16 58 13 84 -8z m-122 -22 c-11 -6 -10 -11 6 -23 11 -8 17 -18 12 -22 -4 -4 -18 3 -32 16 -23 21 -23 24 -7 36 9 7 21 10 25 7 5 -3 3 -9 -4 -14z m650 2 c26 -20 21 -41 -8 -41 -11 0 -29 9 -42 20 -21 17 -22 21 -9 30 21 14 32 12 59 -9z m-63 -32 c16 -17 16 -22 4 -29 -21 -13 -24 -13 -54 11 -14 11 -24 25 -21 30 11 16 51 10 71 -12z m-641 1 c3 -6 -6 -15 -22 -22 -23 -9 -24 -12 -10 -15 10 -3 25 1 33 8 8 6 18 9 21 5 11 -10 -18 -26 -48 -26 -33 0 -64 31 -47 48 15 15 64 16 73 2z m565 -18 c25 -20 20 -42 -9 -42 -11 0 -29 9 -42 20 -21 17 -22 21 -9 30 22 14 35 12 60 -8z m-755 -12 c4 -7 12 -7 25 0 27 14 42 12 69 -11 32 -26 19 -37 -14 -11 -15 12 -33 18 -41 15 -12 -5 -11 -10 7 -29 17 -18 19 -24 8 -24 -8 0 -30 16 -49 35 -19 19 -29 35 -23 35 7 0 15 -5 18 -10z m670 -16 c14 -9 25 -21 25 -27 0 -5 -8 -3 -18 6 -10 10 -26 17 -36 17 -9 0 -14 5 -11 10 8 13 11 13 40 -6z m-687 -25 c7 -11 20 -19 28 -19 8 0 14 -4 14 -10 0 -5 -5 -10 -12 -10 -16 0 -77 42 -83 58 -7 20 37 3 53 -19z m-98 12 c0 -5 -14 -12 -30 -16 -24 -5 -29 -10 -20 -20 9 -11 17 -11 46 1 19 8 34 10 34 4 0 -5 -11 -12 -25 -16 -14 -3 -25 -10 -25 -14 0 -18 19 -19 54 -5 20 8 36 11 36 6 0 -6 -18 -16 -39 -22 -37 -11 -42 -10 -73 16 -18 15 -33 32 -33 38 0 8 32 24 73 36 1 1 2 -3 2 -8z m644 -26 c8 -8 21 -15 30 -15 25 0 27 -17 3 -24 -48 -13 -60 -8 -53 22 5 19 4 23 -3 12 -11 -16 -27 -7 -16 9 9 15 21 14 39 -4z m-133 -34 c-12 -8 -11 -13 10 -30 13 -11 19 -20 13 -21 -6 0 -17 7 -24 15 -7 8 -24 15 -39 16 l-26 1 30 13 c34 16 57 19 36 6z m-671 -52 c16 -16 23 -29 17 -29 -13 0 -77 52 -77 62 0 13 31 -4 60 -33z m-35 -47 c-7 -7 -55 39 -55 52 0 5 13 -3 30 -19 16 -16 28 -31 25 -33z m610 35 c10 -8 15 -19 11 -25 -10 -17 -41 -15 -57 4 -10 13 -10 17 2 25 19 12 22 11 44 -4z m-770 -7 c3 -5 15 -6 28 -1 27 10 65 -3 74 -25 7 -18 -12 -34 -42 -34 -18 1 -85 52 -85 65 0 9 19 5 25 -5z m687 -40 c6 0 5 7 -3 17 -13 15 -12 15 9 4 26 -14 28 -27 5 -33 -19 -4 -56 26 -45 36 3 4 10 0 14 -9 5 -8 14 -15 20 -15z m-702 -12 l29 -21 -25 -14 c-15 -7 -35 -13 -45 -13 -19 0 -38 22 -23 27 22 8 38 22 32 29 -4 4 -19 -1 -33 -10 -14 -9 -25 -12 -25 -7 0 12 29 30 48 31 7 0 26 -10 42 -22z m655 6 c17 -13 18 -16 5 -24 -18 -12 -50 -13 -50 -2 0 4 6 14 13 21 10 11 8 12 -12 6 -16 -5 -21 -4 -17 4 10 15 37 13 61 -5z m-85 -15 c24 -20 24 -21 5 -35 -26 -19 -38 -18 -64 10 -22 23 -22 25 -4 35 25 15 35 13 63 -10z m-645 -78 c-16 -16 -65 -25 -65 -12 0 6 11 11 25 11 14 0 25 4 25 9 0 5 -17 7 -38 4 -67 -9 -95 48 -29 60 27 4 97 -57 82 -72z m574 44 c7 -7 10 -18 7 -24 -11 -17 -51 -13 -69 7 -34 37 24 52 62 17z m-799 -15 c11 -7 6 -10 -21 -10 -46 0 -67 -21 -44 -44 17 -16 51 -21 79 -10 26 10 18 27 -9 20 -14 -4 -25 -2 -25 3 0 15 51 23 66 10 13 -10 12 -14 -1 -29 -9 -10 -28 -20 -43 -23 -28 -5 -85 13 -96 31 -10 17 4 40 32 51 35 12 44 13 62 1z m90 -15 c13 -14 21 -27 18 -30 -2 -3 -17 9 -33 25 -16 17 -24 30 -19 30 6 0 21 -11 34 -25z m634 6 c14 -16 15 -20 2 -30 -17 -14 -48 -7 -66 14 -28 34 34 50 64 16z m-86 -17 c28 -19 29 -44 1 -44 -44 0 -80 40 -46 53 19 8 21 8 45 -9z m-77 -40 l24 -26 -32 19 c-18 10 -33 21 -33 26 0 14 17 7 41 -19z m-62 -20 c17 -38 6 -42 -14 -5 -8 17 -12 31 -7 31 5 0 14 -12 21 -26z m-35 -13 c14 -16 15 -20 2 -30 -17 -14 -48 -7 -66 14 -28 34 34 50 64 16z m-86 -17 c28 -19 29 -44 1 -44 -44 0 -80 40 -46 53 19 8 21 8 45 -9z m-78 -39 c13 -14 19 -25 14 -25 -11 1 -54 36 -54 44 0 13 18 5 40 -19z m-61 -21 c17 -38 6 -42 -14 -5 -8 17 -12 31 -7 31 5 0 14 -12 21 -26z m2248 -13 c-1 -19 -9 -32 -19 -35 -23 -5 -23 12 -1 36 9 10 12 18 6 18 -5 0 -23 -16 -40 -35 -37 -42 -43 -43 -43 -10 0 25 32 51 50 40 5 -3 11 -1 15 5 14 22 34 10 32 -19z m-2281 -2 c16 -17 16 -22 4 -29 -22 -14 -35 -12 -60 8 -13 11 -20 24 -16 30 11 19 51 14 72 -9z m2165 -13 c-7 -8 -8 -16 -4 -18 5 -1 1 -11 -9 -20 -17 -17 -18 -17 -18 11 0 27 10 38 34 40 5 1 3 -5 -3 -13z m-2259 -13 c10 -9 18 -21 18 -26 0 -6 -10 -1 -23 11 -13 12 -27 19 -30 15 -4 -3 -7 -1 -7 5 0 17 20 15 42 -5z m2213 -3 c3 -5 -2 -10 -11 -10 -17 0 -17 -1 0 -13 16 -12 16 -14 2 -26 -8 -7 -21 -11 -28 -8 -8 4 -7 6 5 6 21 1 23 21 2 21 -18 0 -19 12 -3 28 15 15 25 15 33 2z m170 -36 c37 -4 38 -6 16 -15 -16 -6 -28 -6 -37 2 -17 14 -18 33 -1 22 6 -4 17 -8 22 -9z m-131 -38 c-4 -10 2 -12 20 -9 14 3 26 1 26 -5 0 -5 -12 -12 -27 -14 -16 -3 -35 -7 -43 -10 -8 -3 -11 -3 -7 0 5 2 12 15 17 28 5 13 12 24 14 24 3 0 3 -6 0 -14z m229 -11 l28 -25 -10 -76 c-6 -41 -11 -99 -11 -129 l0 -53 -62 -21 c-34 -11 -63 -19 -66 -17 -4 5 44 27 85 40 16 5 22 18 26 64 4 31 9 86 13 121 8 75 21 75 -138 8 -58 -25 -139 -55 -178 -66 -40 -11 -74 -22 -76 -24 -3 -2 -7 -34 -11 -71 -3 -36 -9 -66 -14 -66 -11 0 1 111 16 143 8 15 11 25 7 23 -4 -2 -16 2 -27 10 -17 13 -16 14 16 14 19 0 40 -5 46 -11 17 -17 66 0 60 21 -5 21 31 36 47 20 6 -6 16 -10 23 -10 9 0 7 7 -7 22 -11 12 -20 25 -20 29 0 14 20 20 37 11 9 -6 29 -6 45 -2 16 5 30 5 33 -1 8 -12 42 -11 66 2 19 10 20 12 4 29 -15 17 -15 19 2 29 26 15 35 13 66 -14z m-88 -15 c16 -18 16 -20 1 -26 -18 -7 -59 23 -50 37 9 15 30 10 49 -11z m-205 -30 c0 -5 -4 -10 -9 -10 -5 0 -18 -3 -28 -6 -16 -5 -16 -4 1 10 23 18 36 20 36 6z m-390 -40 c0 -16 -4 -30 -10 -30 -11 0 -14 43 -3 53 11 12 13 8 13 -23z m-56 -19 c-11 -9 -23 -23 -27 -31 -3 -8 -6 2 -6 22 -1 27 4 38 17 41 29 6 39 -13 16 -32z m336 20 c0 -9 -41 -23 -49 -16 -3 4 28 20 47 24 1 1 2 -3 2 -8z m90 -26 c0 -26 -23 -29 -42 -5 -14 18 -16 25 -6 31 15 10 48 -7 48 -26z m-484 10 c-11 -8 -14 -15 -8 -15 9 0 9 -5 0 -20 -17 -27 -28 -25 -28 5 0 13 8 29 18 34 26 16 40 12 18 -4z m-59 -22 c-18 -5 -18 -5 0 -19 17 -14 17 -15 -1 -29 -10 -8 -24 -11 -30 -7 -7 4 -4 8 7 10 17 4 17 4 1 16 -21 16 -10 36 19 35 18 -1 19 -2 4 -6z m-380 -60 c-2 -24 -7 -28 -36 -28 -19 -1 -38 -8 -46 -18 -15 -21 -23 -13 -17 18 5 27 40 44 52 25 6 -9 11 -7 19 9 16 29 30 26 28 -6z m608 17 c-28 -12 -47 -12 -40 0 3 6 18 10 33 9 24 0 25 -1 7 -9z m-60 -20 c-3 -5 -12 -10 -18 -10 -7 0 -6 4 3 10 19 12 23 12 15 0z m128 -26 l29 -25 -7 -128 -7 -129 -58 -21 c-31 -12 -61 -21 -66 -21 -19 0 15 19 62 34 l51 17 6 117 c3 64 4 119 1 121 -2 2 -32 -8 -66 -22 -35 -14 -117 -45 -183 -67 -66 -23 -129 -46 -141 -50 -19 -8 -22 -18 -26 -127 -3 -65 -5 -119 -4 -120 2 -2 29 8 62 21 41 17 59 30 59 42 0 13 18 24 70 41 67 23 95 24 95 4 0 -9 -125 -61 -148 -61 -6 0 -12 -4 -12 -8 0 -8 -114 -52 -132 -52 -10 0 -9 115 1 205 5 40 4 75 -1 81 -6 8 0 14 18 18 17 5 30 3 34 -5 6 -9 16 -8 45 1 27 9 34 15 26 23 -28 28 9 35 64 11 18 -7 18 -6 -3 20 -27 35 -28 46 -3 46 24 0 45 -25 38 -44 -4 -10 -1 -13 9 -9 9 3 12 12 9 24 -8 24 20 37 46 21 25 -16 41 -15 64 2 16 11 17 16 7 29 -11 13 -10 17 5 26 24 14 24 14 56 -15z m372 16 c-3 -5 -11 -10 -16 -10 -6 0 -7 5 -4 10 3 6 11 10 16 10 6 0 7 -4 4 -10z m-1162 -7 c-7 -2 -13 -16 -13 -29 0 -13 -5 -24 -11 -24 -6 0 -8 9 -4 20 4 13 2 20 -7 20 -10 0 -9 3 2 10 8 5 22 9 30 9 10 0 11 -2 3 -6z m607 -2 c0 -5 -11 -12 -24 -15 -13 -3 -32 -9 -43 -12 -10 -3 -4 3 12 15 31 22 55 27 55 12z m106 -40 c-11 -17 -30 -13 -45 10 -11 18 -11 23 1 30 16 10 54 -24 44 -40z m204 14 c0 -8 -4 -15 -10 -15 -5 0 -10 7 -10 15 0 8 5 15 10 15 6 0 10 -7 10 -15z m-750 -19 c-132 -50 -177 -66 -185 -66 -24 1 177 78 205 79 8 0 -1 -6 -20 -13z m325 -7 c-4 -6 -9 -8 -12 -5 -3 3 -21 -1 -39 -9 -41 -17 -45 -11 -6 9 32 18 66 21 57 5z m-240 -29 c-1 -28 -16 -315 -19 -345 -2 -27 -9 -32 -86 -62 -46 -18 -85 -33 -87 -33 -2 0 -3 9 -3 20 0 10 9 24 20 30 11 6 20 21 20 34 0 18 9 26 40 36 l40 13 -1 66 c0 36 2 88 6 115 6 39 5 48 -6 44 -258 -92 -365 -132 -371 -137 -3 -3 -8 -55 -11 -114 l-4 -108 23 5 c12 3 29 9 38 12 12 5 16 0 16 -19 0 -20 4 -24 20 -20 15 4 20 0 20 -14 0 -17 -23 -29 -127 -67 -71 -25 -134 -46 -140 -46 -21 0 -15 31 7 37 14 4 20 14 20 33 0 23 7 31 41 44 l41 17 -6 59 c-4 37 -3 61 4 65 12 8 14 95 1 95 -10 0 -374 -130 -380 -136 -2 -2 -6 -54 -8 -115 -3 -99 -2 -111 13 -105 50 19 64 18 64 -3 0 -14 6 -21 20 -21 12 0 20 -7 20 -18 0 -13 -31 -28 -132 -65 -73 -26 -136 -47 -140 -47 -17 0 -7 38 12 43 14 3 20 14 20 32 0 22 7 29 40 42 35 14 40 20 40 49 0 18 -4 35 -8 38 -5 3 -3 35 5 72 8 37 10 70 6 74 -4 4 -96 -25 -203 -64 l-195 -72 -3 -113 c-2 -101 -1 -113 14 -107 50 19 64 18 64 -3 0 -14 6 -21 20 -21 13 0 20 -7 20 -19 0 -14 -15 -24 -57 -39 -32 -11 -95 -34 -140 -51 l-83 -30 0 24 c0 14 7 25 17 27 11 2 18 12 18 27 0 25 11 34 58 51 22 8 27 15 27 45 0 19 -4 35 -10 35 -5 0 -10 11 -10 24 0 14 5 28 10 31 13 8 13 95 1 95 -9 0 -307 -105 -373 -131 l-28 -11 2 -114 c1 -63 2 -114 3 -114 2 0 19 7 39 15 20 8 37 12 38 8 0 -5 2 -15 2 -23 1 -8 9 -14 18 -12 20 3 31 -23 15 -36 -15 -11 -158 -62 -174 -62 -10 0 -13 47 -13 203 l0 202 78 27 c42 14 91 31 107 37 17 6 109 39 205 72 367 128 513 180 760 269 427 153 471 169 575 209 106 41 130 45 130 21z m111 -15 c-23 -17 -36 -19 -36 -6 0 11 18 19 40 20 11 0 10 -3 -4 -14z m108 -8 c18 -29 -14 -43 -36 -16 -10 12 -15 25 -12 31 9 14 35 6 48 -15z m431 13 c3 -5 2 -10 -4 -10 -5 0 -13 5 -16 10 -3 6 -2 10 4 10 5 0 13 -4 16 -10z m315 -15 c0 -7 -32 -25 -71 -40 -65 -25 -72 -26 -87 -12 -14 15 -13 17 14 28 121 48 144 52 144 24z m-1544 -22 c5 -27 -22 -51 -38 -35 -9 9 -8 12 6 12 15 0 16 3 6 15 -13 16 -5 38 13 32 5 -1 12 -12 13 -24z m293 13 c-6 -6 -166 -65 -194 -72 -32 -8 44 26 115 51 64 23 88 29 79 21z m942 -9 c-1 -12 -15 -9 -19 4 -3 6 1 10 8 8 6 -3 11 -8 11 -12z m-1286 -7 c3 -5 -3 -15 -15 -22 -11 -7 -20 -18 -20 -25 0 -7 -4 -13 -10 -13 -11 0 -14 53 -3 63 10 10 41 8 48 -3z m1317 -40 l-5 -51 54 22 c30 11 60 23 67 26 6 3 12 1 12 -4 0 -7 -113 -53 -132 -53 -5 0 -8 25 -8 55 0 30 4 55 9 55 4 0 6 -23 3 -50z m-1389 18 c-4 -7 -6 -20 -5 -30 2 -9 -2 -19 -8 -23 -6 -4 -10 4 -10 19 0 14 -6 26 -12 26 -9 0 -8 4 2 10 22 14 43 13 33 -2z m1062 -48 c-3 -5 -11 -10 -16 -10 -6 0 -7 5 -4 10 3 6 11 10 16 10 6 0 7 -4 4 -10z m-920 -15 c-16 -8 -37 -14 -45 -14 -8 0 1 7 20 14 46 18 64 17 25 0z m-66 -20 c-9 -8 -79 -35 -79 -30 0 3 15 11 33 19 32 15 54 20 46 11z m-412 -62 c1 -23 -4 -32 -17 -36 -29 -8 -32 4 -8 31 18 20 19 24 6 19 -18 -6 -24 3 -11 17 14 13 28 -1 30 -31z m254 1 c-35 -14 -65 -23 -68 -21 -5 5 97 45 117 45 8 0 -14 -10 -49 -24z m-305 4 c4 -6 -2 -19 -14 -29 -12 -9 -22 -22 -22 -28 0 -6 -4 -11 -10 -11 -5 0 -10 12 -10 26 0 14 -4 23 -10 19 -5 -3 -10 -17 -10 -31 0 -13 -4 -24 -10 -24 -5 0 -10 9 -10 20 0 11 -4 20 -10 20 -26 0 -5 18 38 32 62 20 60 20 68 6z m1174 -8 c0 -5 -4 -10 -10 -10 -5 0 -10 5 -10 10 0 6 5 10 10 10 6 0 10 -4 10 -10z m-951 -24 c-7 -7 -79 -35 -79 -31 0 7 54 34 69 35 8 0 12 -2 10 -4z m971 -17 c0 -5 -4 -9 -10 -9 -5 0 -10 7 -10 16 0 8 5 12 10 9 6 -3 10 -10 10 -16z m-1075 -19 c-3 -5 -12 -10 -18 -10 -7 0 -6 4 3 10 19 12 23 12 15 0z m-105 -40 c-8 -5 -22 -9 -30 -9 -10 0 -8 3 5 9 27 12 43 12 25 0z m-70 -25 c-14 -8 -29 -14 -35 -14 -5 0 1 6 15 14 14 8 30 14 35 14 6 0 -1 -6 -15 -14z m-390 -51 c0 -21 -4 -33 -10 -29 -6 4 -8 10 -5 15 3 5 1 12 -5 15 -8 5 -7 11 1 21 17 20 19 18 19 -22z m-44 4 c4 -6 -2 -19 -14 -29 -12 -9 -22 -22 -22 -28 0 -6 -4 -11 -10 -11 -17 0 -11 58 8 69 22 14 29 13 38 -1z m-75 -32 c-7 -8 -10 -20 -7 -25 4 -5 2 -12 -4 -16 -5 -3 -10 3 -10 14 0 12 -4 21 -10 21 -20 0 -9 19 13 22 29 5 32 2 18 -16z m254 -16 c-3 -5 -12 -10 -18 -10 -7 0 -6 4 3 10 19 12 23 12 15 0z m-800 -39 c-15 -15 -274 -105 -281 -98 -5 4 254 104 276 106 9 1 10 -2 5 -8z m695 5 c0 -2 -21 -11 -47 -20 -51 -17 -51 -8 0 11 35 13 47 15 47 9z m-110 -40 c0 -2 -7 -7 -16 -10 -8 -3 -12 -2 -9 4 6 10 25 14 25 6z m-350 -77 c0 -5 -7 -9 -15 -9 -9 0 -18 -7 -22 -16 -3 -8 -11 -13 -19 -10 -7 3 -18 -2 -24 -10 -18 -20 -35 -17 -37 6 -1 16 2 20 18 15 10 -4 19 -2 19 3 0 11 35 27 61 29 11 1 19 -2 19 -8z m-553 -5 c-3 -3 -12 -4 -19 -1 -8 3 -5 6 6 6 11 1 17 -2 13 -5z m-47 -14 c-8 -5 -19 -10 -25 -10 -5 0 -3 5 5 10 8 5 20 10 25 10 6 0 3 -5 -5 -10z m410 -54 c0 -7 -11 -16 -25 -18 -42 -9 -22 20 23 31 1 1 2 -5 2 -13z m-60 -26 c0 -11 -4 -20 -10 -20 -5 0 -10 9 -10 20 0 11 5 20 10 20 6 0 10 -9 10 -20z m-94 -39 c-12 -19 -24 -12 -19 10 4 13 9 17 15 11 6 -6 7 -15 4 -21z m-29 7 c-2 -7 -12 -13 -23 -14 -29 -1 -40 9 -18 17 29 12 46 10 41 -3z m-682 -48 c-3 -5 -12 -10 -18 -10 -7 0 -6 4 3 10 19 12 23 12 15 0z m545 -11 c0 -16 -4 -19 -17 -15 -9 4 -20 1 -25 -6 -8 -10 -11 -10 -15 0 -2 6 -9 10 -14 6 -5 -3 -9 0 -9 6 0 12 35 28 63 29 11 1 17 -6 17 -20z m-171 -57 c-28 -20 -41 -22 -51 -7 -5 6 7 14 30 21 46 14 53 9 21 -14z m721 -117 l0 -145 60 31 c58 30 80 33 65 9 -4 -6 -13 -9 -21 -6 -8 3 -14 0 -14 -7 0 -7 -9 -18 -21 -25 -16 -10 -19 -10 -13 -1 5 9 2 10 -12 4 -10 -4 -29 -10 -41 -12 l-23 -5 0 142 c0 137 -1 141 -20 135 -11 -3 -20 -4 -20 0 0 5 37 23 53 24 4 1 7 -64 7 -144z m-550 115 c0 -5 -4 -10 -10 -10 -5 0 -10 5 -10 10 0 6 5 10 10 10 6 0 10 -4 10 -10z m-154 -67 c-10 -10 -19 5 -10 18 6 11 8 11 12 0 2 -7 1 -15 -2 -18z m-122 -57 c-5 -13 -23 -25 -46 -31 -5 -2 -11 -4 -15 -5 -5 -1 -18 -1 -30 0 -13 1 -23 -3 -23 -8 0 -7 -42 -32 -55 -32 -5 0 0 29 7 35 3 4 12 8 20 9 13 3 26 7 88 31 46 18 61 18 54 1z m276 -26 c0 -5 -4 -10 -10 -10 -5 0 -10 5 -10 10 0 6 5 10 10 10 6 0 10 -4 10 -10z m704 -64 c-3 -9 -10 -16 -15 -16 -6 0 -5 9 1 21 13 24 24 20 14 -5z m-854 10 c0 -3 -4 -8 -10 -11 -5 -3 -10 -1 -10 4 0 6 5 11 10 11 6 0 10 -2 10 -4z m640 -21 c0 -8 -9 -15 -19 -15 -11 0 -23 -5 -26 -11 -4 -6 -13 -8 -21 -5 -7 3 -18 -3 -23 -12 -9 -16 -10 -16 -17 2 -8 20 11 37 33 29 7 -3 13 0 13 5 0 10 19 18 48 21 6 0 12 -6 12 -14z m-340 -15 c0 -5 -4 -10 -10 -10 -5 0 -10 5 -10 10 0 6 5 10 10 10 6 0 10 -4 10 -10z m-455 -39 c7 -12 -35 -42 -48 -34 -5 3 -3 9 4 14 11 7 11 9 -1 9 -13 0 -13 1 0 10 19 12 37 13 45 1z m-140 -61 c-6 -9 -9 -9 -16 1 -10 17 0 34 13 21 6 -6 7 -16 3 -22z m295 -4 c0 -3 -4 -8 -10 -11 -5 -3 -10 -1 -10 4 0 6 5 11 10 11 6 0 10 -2 10 -4z m-110 -71 c0 -8 -4 -15 -10 -15 -5 0 -10 7 -10 15 0 8 5 15 10 15 6 0 10 -7 10 -15z m-30 -28 c0 -6 -3 -7 -6 -4 -4 3 -15 2 -25 -4 -14 -7 -19 -6 -19 4 0 8 3 16 6 19 8 9 44 -3 44 -15z m-85 -26 c-14 -14 -65 -25 -65 -15 0 15 54 42 65 33 5 -6 5 -12 0 -18z m-75 -31 c0 -5 -5 -10 -11 -10 -5 0 -7 5 -4 10 3 6 8 10 11 10 2 0 4 -4 4 -10z"/>
<path d="M5830 3480 c0 -13 11 -13 30 0 12 8 11 10 -7 10 -13 0 -23 -4 -23 -10z"/>
<path d="M6446 3472 c-4 -7 -5 -12 -2 -12 2 0 11 -3 20 -6 9 -3 16 -1 16 6 0 6 -4 9 -9 6 -5 -4 -11 -1 -13 6 -3 9 -6 9 -12 0z"/>
<path d="M6358 3453 c7 -3 16 -2 19 1 4 3 -2 6 -13 5 -11 0 -14 -3 -6 -6z"/>
<path d="M6385 3440 c-3 -5 1 -10 10 -10 9 0 13 5 10 10 -3 6 -8 10 -10 10 -2 0 -7 -4 -10 -10z"/>
<path d="M6282 3428 c6 -17 36 -34 45 -24 4 4 -1 14 -11 22 -24 17 -39 18 -34 2z"/>
<path d="M6220 3395 c7 -8 19 -15 27 -15 13 0 13 3 3 15 -7 8 -19 15 -27 15 -13 0 -13 -3 -3 -15z"/>
<path d="M5565 3390 c-8 -13 5 -13 25 0 13 8 13 10 -2 10 -9 0 -20 -4 -23 -10z"/>
<path d="M6140 3380 c0 -12 40 -33 48 -25 4 4 -2 13 -12 21 -23 16 -36 18 -36 4z"/>
<path d="M5958 3283 c7 -3 16 -2 19 1 4 3 -2 6 -13 5 -11 0 -14 -3 -6 -6z"/>
<path d="M5700 3210 c0 -13 28 -25 38 -16 3 4 0 11 -8 16 -20 13 -30 12 -30 0z"/>
<path d="M4992 3188 c7 -21 36 -34 49 -21 6 6 8 16 5 22 -10 15 -59 14 -54 -1z"/>
<path d="M4910 3140 c-8 -5 -11 -12 -8 -16 10 -9 38 3 38 16 0 12 -10 13 -30 0z"/>
<path d="M5575 3150 c-3 -5 -2 -10 4 -10 5 0 13 5 16 10 3 6 2 10 -4 10 -5 0 -13 -4 -16 -10z"/>
<path d="M5474 3131 c10 -11 24 -17 32 -14 23 8 16 22 -8 16 -19 -4 -20 -3 -8 6 12 9 11 11 -9 11 -23 0 -23 -1 -7 -19z"/>
<path d="M4777 3123 c-10 -9 13 -33 33 -33 24 0 32 11 19 27 -12 14 -41 18 -52 6z"/>
<path d="M5392 3118 c6 -17 36 -34 45 -24 4 4 -1 14 -11 22 -24 17 -39 18 -34 2z"/>
<path d="M5320 3090 c0 -12 40 -34 47 -26 9 8 -17 36 -33 36 -8 0 -14 -4 -14 -10z"/>
<path d="M5245 3071 c-6 -10 25 -31 46 -31 8 0 5 7 -6 20 -20 22 -31 25 -40 11z"/>
<path d="M5060 3000 c0 -12 40 -34 47 -26 9 8 -17 36 -33 36 -8 0 -14 -4 -14 -10z"/>
<path d="M4986 2983 c-10 -10 15 -33 36 -33 10 0 16 4 13 10 -9 15 -41 30 -49 23z"/>
<path d="M4802 2908 c6 -16 36 -34 44 -25 9 9 -15 37 -33 37 -8 0 -13 -5 -11 -12z"/>
<path d="M7050 2720 c0 -5 5 -10 10 -10 6 0 10 5 10 10 0 6 -4 10 -10 10 -5 0 -10 -4 -10 -10z"/>
<path d="M5925 2600 c-3 -5 -1 -10 4 -10 6 0 11 5 11 10 0 6 -2 10 -4 10 -3 0 -8 -4 -11 -10z"/>
<path d="M5480 2449 c0 -5 5 -7 10 -4 6 3 10 8 10 11 0 2 -4 4 -10 4 -5 0 -10 -5 -10 -11z"/>
<path d="M4530 2099 c0 -5 5 -7 10 -4 6 3 10 8 10 11 0 2 -4 4 -10 4 -5 0 -10 -5 -10 -11z"/>
</g>
</svg>
